@startuml API

Uint128 <|-- Atom

enum OpType {
  HEADER
  QUERY
  RAW
  REDUCED
}

Atom <|-- UUID

UUID <|-- Spec : [4]

Atom <|-- Op : []

Op o-- Cursor

Op : -term : OpType
OpType <.. Op : term

Cursor : +parser : ParserState
Cursor : +position : Int

Frame : -binary : Bool
Frame : +body : Byte[]
Frame : +serializer : SerializerState

Cursor <|-- Batch : []

Batch --> Frame : Reducer

interface "?" as UserObject << user object >>
Batch --> UserObject : Mapper

@enduml
